<svg width="28" height="26" viewBox="0 0 28 26" fill="none" xmlns="http://www.w3.org/2000/svg">
<path d="M20.4112 1.34923C20.785 1.34923 21.1589 1.38569 21.5327 1.42216C23.7383 1.64095 26.2056 3.6101 26.5794 7.51192V8.97055C26.2056 13.5652 21.9439 18.7433 13.9813 24.3226C6.01869 18.7433 1.79439 13.5652 1.38318 8.97055V7.51192C1.71963 3.6101 4.2243 1.60449 6.42991 1.42216C6.80374 1.38569 7.17757 1.34923 7.5514 1.34923C10.0187 1.34923 11.215 2.2244 12.8972 4.23001L13.9813 5.46985L15.0654 4.23001C16.785 2.2244 17.9439 1.34923 20.4112 1.34923ZM20.4112 0C17.2336 0 15.7383 1.34923 13.9813 3.35484C12.2243 1.31276 10.729 0 7.5514 0C7.14019 0 6.72897 0.0364659 6.28037 0.0729316C3.5514 0.328191 0.373832 2.77139 0 7.47546V9.00701C0.373832 13.4923 3.85047 19.0351 13.9813 26C24.1495 19.0351 27.6262 13.4923 28 9.00701V7.43899C27.6262 2.73492 24.4486 0.291725 21.6822 0.0364658C21.2336 1.38562e-07 20.8224 0 20.4112 0Z" fill="#393939"/>
</svg>
