<svg width="28" height="28" viewBox="0 0 28 28" fill="none" xmlns="http://www.w3.org/2000/svg">
<path d="M18.1702 0H9.82979C7.22355 0.00255509 4.72479 1.03901 2.8819 2.8819C1.03901 4.72479 0.00255509 7.22355 0 9.82979V18.1702C0.00257083 20.7764 1.03903 23.2752 2.88192 25.1181C4.7248 26.961 7.22355 27.9974 9.82979 28H18.1702C20.7764 27.9974 23.2752 26.961 25.1181 25.1181C26.961 23.2752 27.9974 20.7764 28 18.1702V9.82979C27.9974 7.22355 26.961 4.72479 25.1181 2.8819C23.2752 1.03901 20.7764 0.00255509 18.1702 0ZM14 20.5174C12.711 20.5174 11.4509 20.1352 10.3791 19.4191C9.30731 18.7029 8.47195 17.685 7.97866 16.4941C7.48537 15.3032 7.35631 13.9928 7.60778 12.7285C7.85926 11.4642 8.47999 10.3029 9.39147 9.39147C10.3029 8.47999 11.4642 7.85926 12.7285 7.60778C13.9928 7.35631 15.3032 7.48537 16.4941 7.97866C17.685 8.47195 18.7029 9.30731 19.4191 10.3791C20.1352 11.4509 20.5174 12.711 20.5174 14C20.515 15.7278 19.8276 17.3841 18.6059 18.6059C17.3841 19.8276 15.7278 20.515 14 20.5174ZM22.3583 7.78638C22.3042 7.84228 22.2443 7.89221 22.1796 7.93532C22.1132 7.9769 22.0435 8.01277 21.9711 8.04255C21.9005 8.07334 21.8265 8.09535 21.7506 8.10809C21.6743 8.12485 21.5964 8.13284 21.5183 8.13191C21.3613 8.12994 21.2059 8.09967 21.0596 8.04255C20.9891 8.01274 20.9213 7.97686 20.857 7.93532C20.7915 7.89077 20.7298 7.84096 20.6723 7.78638C20.4505 7.56071 20.3264 7.25684 20.3268 6.94043C20.3259 6.86232 20.3339 6.78437 20.3506 6.70809C20.3634 6.6322 20.3854 6.55817 20.4162 6.48766C20.4459 6.41523 20.4818 6.34547 20.5234 6.27915C20.5683 6.21575 20.6181 6.15599 20.6723 6.10043C20.7297 6.0458 20.7915 5.99598 20.857 5.95149C20.9213 5.90988 20.989 5.874 21.0596 5.84425C21.1329 5.81419 21.2086 5.79028 21.286 5.77277C21.4779 5.73535 21.676 5.74567 21.863 5.8028C22.05 5.85994 22.2201 5.96214 22.3583 6.10043C22.4143 6.15444 22.4642 6.21437 22.5072 6.27915C22.5508 6.34535 22.5886 6.4151 22.6204 6.48766C22.6485 6.55913 22.6704 6.63288 22.686 6.70809C22.6998 6.78481 22.7078 6.86249 22.7098 6.94043C22.7102 7.0977 22.6794 7.25349 22.6191 7.39873C22.5587 7.54396 22.4701 7.67574 22.3583 7.78638ZM14 9.26979C13.0645 9.26979 12.1499 9.54721 11.372 10.067C10.5942 10.5867 9.98787 11.3255 9.62985 12.1898C9.27183 13.0542 9.17816 14.0052 9.36068 14.9228C9.54319 15.8404 9.9937 16.6832 10.6552 17.3448C11.3168 18.0063 12.1596 18.4568 13.0772 18.6393C13.9948 18.8218 14.9458 18.7282 15.8102 18.3701C16.6745 18.0121 17.4133 17.4058 17.933 16.628C18.4528 15.8501 18.7302 14.9355 18.7302 14C18.7292 12.7458 18.2305 11.5432 17.3436 10.6564C16.4568 9.7695 15.2542 9.27081 14 9.26979ZM13.4221 12.3498C13.0797 12.4695 12.7829 12.6925 12.5727 12.9881C12.3624 13.2837 12.2492 13.6373 12.2485 14C12.2485 14.237 12.1544 14.4643 11.9868 14.6319C11.8192 14.7995 11.5919 14.8936 11.3549 14.8936C11.1179 14.8936 10.8906 14.7995 10.723 14.6319C10.5554 14.4643 10.4613 14.237 10.4613 14C10.462 13.2667 10.6905 12.5518 11.1153 11.9542C11.5401 11.3565 12.1401 10.9056 12.8323 10.6638C13.0556 10.5869 13.3002 10.6016 13.5127 10.7045C13.7252 10.8075 13.8882 10.9904 13.9662 11.2133C14.0442 11.4362 14.0307 11.6809 13.9288 11.8939C13.8268 12.1068 13.6446 12.2708 13.4221 12.3498Z" fill="#393939"/>
</svg>
