<svg width="82" height="82" viewBox="0 0 82 82" fill="none" xmlns="http://www.w3.org/2000/svg">
<rect width="82" height="82" fill="#393939"/>
<path fill-rule="evenodd" clip-rule="evenodd" d="M33.4933 25.6979C33.4171 25.7055 33.3421 25.7216 33.2695 25.746C30.9918 26.4455 29.3786 27.6827 28.5074 29.2936C27.6363 30.9045 27.5262 32.7927 27.9002 34.7108C28.6482 38.5472 31.3025 42.6706 34.6598 46.1047C38.0171 49.5389 42.0654 52.2875 45.9259 53.0881C47.8561 53.4883 49.7781 53.3825 51.439 52.5128C53.1 51.6431 54.4215 50.0212 55.2423 47.7028C55.3181 47.4854 55.3182 47.2488 55.2428 47.0313C55.1674 46.8138 55.0209 46.6281 54.8268 46.5042L47.5399 41.9339L47.5239 41.9181C47.488 41.8944 47.4506 41.8731 47.412 41.8542C47.3048 41.7847 47.1856 41.7359 47.0605 41.7103C47.0498 41.7102 47.0392 41.7102 47.0285 41.7103C47.0021 41.704 46.9754 41.6987 46.9486 41.6945C46.9433 41.6944 46.938 41.6944 46.9326 41.6945C46.7621 41.6846 46.5918 41.7175 46.4372 41.7904C46.3812 41.8174 46.3277 41.8495 46.2774 41.8862C46.2443 41.9057 46.2123 41.9271 46.1816 41.9502C46.1704 41.9659 46.1598 41.9819 46.1496 41.9983C46.1095 42.0326 46.0721 42.07 46.0377 42.1101L44.4397 43.7241C41.5424 42.2657 39.3145 39.8206 37.3125 36.517L38.7827 35.0628C38.8108 35.0377 38.8375 35.011 38.8626 34.9829C38.8849 34.9626 38.9062 34.9413 38.9265 34.919C38.9266 34.9137 38.9266 34.9084 38.9265 34.9032C38.9488 34.8828 38.9701 34.8615 38.9905 34.8392C38.9905 34.834 38.9905 34.8287 38.9905 34.8234C39.0016 34.8077 39.0122 34.7916 39.0224 34.7753C39.0333 34.765 39.044 34.7544 39.0544 34.7436C39.0661 34.7174 39.0768 34.6908 39.0863 34.6637C39.0864 34.6584 39.0864 34.6531 39.0863 34.6479C39.0918 34.6374 39.0972 34.6268 39.1023 34.6161C39.1137 34.5952 39.1244 34.5739 39.1343 34.5522C39.1407 34.5258 39.146 34.4992 39.1503 34.4724C39.1503 34.4671 39.1503 34.4618 39.1503 34.4565C39.1571 34.4248 39.1624 34.3928 39.1662 34.3606C39.1663 34.3553 39.1663 34.35 39.1662 34.3448C39.1673 34.3181 39.1673 34.2915 39.1662 34.2648C39.1663 34.2595 39.1663 34.2543 39.1662 34.249C39.1673 34.2224 39.1673 34.1957 39.1662 34.1691C39.1664 34.1585 39.1664 34.148 39.1662 34.1374C39.162 34.1105 39.1566 34.0839 39.1503 34.0575C39.1503 34.0522 39.1503 34.0469 39.1503 34.0416C39.1344 33.9812 39.113 33.9224 39.0863 33.8659C39.0864 33.8606 39.0864 33.8553 39.0863 33.85C39.068 33.8059 39.0467 33.7632 39.0224 33.7222L39.0064 33.6904C39.0012 33.6851 38.9958 33.6798 38.9905 33.6746L34.4361 26.1959C34.3478 26.0489 34.2239 25.9265 34.0759 25.8399C33.9279 25.7534 33.7605 25.7054 33.5891 25.7005C33.5572 25.699 33.5252 25.699 33.4933 25.7005V25.6979ZM33.1257 27.9511L36.8491 34.1035L35.299 35.6376C35.1412 35.7968 35.0401 36.0035 35.0112 36.2258C34.9823 36.4481 35.0273 36.6738 35.1392 36.868C37.5047 40.9644 40.3074 44.1512 44.232 45.8809C44.42 45.9644 44.6289 45.9893 44.8313 45.9522C45.0338 45.9152 45.2203 45.8179 45.3666 45.6732L47.0125 44.0272L53.0211 47.7826C52.3557 49.2799 51.4884 50.1714 50.4962 50.691C49.3469 51.2928 47.9432 51.4067 46.3414 51.0745C43.1376 50.4101 39.2677 47.8922 36.114 44.6664C32.9604 41.4406 30.5199 37.5181 29.8977 34.3272C29.5866 32.7318 29.7241 31.3576 30.3132 30.2682C30.8205 29.3302 31.6821 28.5272 33.1257 27.9511Z" fill="white"/>
<path fill-rule="evenodd" clip-rule="evenodd" d="M41.5 17C29.0887 17 19 27.0835 19 39.5C19 44.012 20.337 48.2292 22.6945 51.8471L20.1782 60.244C20.1242 60.4243 20.121 60.616 20.169 60.7979C20.2169 60.9799 20.3141 61.1451 20.4499 61.2753C20.5856 61.4056 20.7547 61.4959 20.9385 61.5363C21.1222 61.5767 21.3136 61.5656 21.4915 61.5042L29.7104 58.6678C33.1327 60.78 37.1797 62 41.5 62C53.9161 62 64 51.9161 64 39.5C64 27.0838 53.9161 17 41.5 17ZM41.5 19.0452C52.8112 19.0452 61.9548 28.1887 61.9548 39.5C61.9548 50.8112 52.8112 59.9548 41.5 59.9548C37.3996 59.9548 33.5861 58.7521 30.3974 56.6832C30.267 56.5986 30.1191 56.5448 29.9648 56.526C29.8106 56.5071 29.6541 56.5237 29.5072 56.5744L22.7101 58.9201L24.7914 51.9743C24.8351 51.8285 24.8457 51.6748 24.8224 51.5243C24.7991 51.3739 24.7426 51.2306 24.6568 51.1048C22.3462 47.7145 21.0452 43.7656 21.0452 39.5C21.0452 28.189 30.1941 19.0452 41.5 19.0452Z" fill="white"/>
</svg>
