<svg width="12" height="18" viewBox="0 0 12 18" fill="none" xmlns="http://www.w3.org/2000/svg">
<path d="M11.9899 8.87003C11.954 8.67045 11.8408 8.48502 11.6663 8.34006L2.108 0.340753C2.00299 0.240807 1.87365 0.159155 1.72795 0.10081C1.58224 0.0424637 1.42325 0.00865375 1.2607 0.00145481C1.09815 -0.00574414 0.935458 0.0138196 0.782655 0.0589455C0.629852 0.104071 0.490143 0.173808 0.372091 0.263875C0.254041 0.353942 0.160153 0.46244 0.0961704 0.58271C0.0321874 0.702981 -0.000546492 0.832488 7.58729e-06 0.963283C0.00056262 1.09408 0.034378 1.2234 0.0993795 1.34332C0.164381 1.46324 0.259211 1.57122 0.378023 1.66064L9.15229 9L0.378022 16.3394C0.259209 16.4288 0.16438 16.5368 0.0993788 16.6567C0.0343764 16.7766 0.000561929 16.9059 6.8847e-06 17.0367C-0.000548159 17.1675 0.0321867 17.297 0.0961697 17.4173C0.160153 17.5376 0.254039 17.6461 0.372091 17.7361C0.490142 17.8262 0.629851 17.8959 0.782654 17.9411C0.935458 17.9862 1.09814 18.0057 1.2607 17.9985C1.42325 17.9913 1.58224 17.9575 1.72795 17.8992C1.87365 17.8408 2.00299 17.7592 2.108 17.6592L11.6663 9.65994C11.7905 9.55619 11.8841 9.43133 11.9401 9.29459C11.9961 9.15786 12.0131 9.01276 11.9899 8.87003Z" fill="#393939"/>
</svg>
