<svg width="8" height="13" viewBox="0 0 8 13" fill="none" xmlns="http://www.w3.org/2000/svg">
<path d="M7.99328 6.40613C7.96934 6.26199 7.89387 6.12807 7.77756 6.02337L1.40534 0.246099C1.33533 0.173916 1.2491 0.114946 1.15197 0.0728069C1.05483 0.0306683 0.948835 0.00624996 0.840467 0.00105072C0.732099 -0.00414852 0.623641 0.00998084 0.521772 0.0425718C0.419903 0.0751627 0.326764 0.125528 0.248063 0.190577C0.169363 0.255625 0.106771 0.333984 0.064116 0.420846C0.0214605 0.507709 -0.000362423 0.601241 7.12215e-06 0.695704C0.000377144 0.790167 0.0229206 0.883568 0.0662551 0.970175C0.109589 1.05678 0.172809 1.13477 0.252017 1.19935L6.10153 6.5L0.252017 11.8006C0.172808 11.8652 0.109589 11.9432 0.0662546 12.0298C0.0229196 12.1164 0.000376644 12.2098 6.61472e-06 12.3043C-0.000362938 12.3988 0.02146 12.4923 0.0641155 12.5792C0.10677 12.666 0.169362 12.7444 0.248063 12.8094C0.326764 12.8745 0.419902 12.9248 0.521771 12.9574C0.62364 12.99 0.732098 13.0041 0.840466 12.9989C0.948835 12.9938 1.05483 12.9693 1.15197 12.9272C1.2491 12.8851 1.33533 12.8261 1.40534 12.7539L7.77756 6.97662C7.86035 6.90169 7.92272 6.81151 7.96006 6.71276C7.9974 6.61401 8.00876 6.50922 7.99328 6.40613Z" fill="#979797"/>
</svg>
