<svg width="13" height="8" viewBox="0 0 13 8" fill="none" xmlns="http://www.w3.org/2000/svg">
<path d="M6.59387 7.99328C6.73801 7.96934 6.87193 7.89386 6.97663 7.77755L12.7539 1.40534C12.8261 1.33533 12.8851 1.2491 12.9272 1.15197C12.9693 1.05483 12.9938 0.948835 12.9989 0.840467C13.0041 0.732099 12.99 0.623641 12.9574 0.521772C12.9248 0.419903 12.8745 0.326764 12.8094 0.248063C12.7444 0.169363 12.666 0.106771 12.5792 0.064116C12.4923 0.0214605 12.3988 -0.000362449 12.3043 7.09174e-06C12.2098 0.000377109 12.1164 0.0229205 12.0298 0.066255C11.9432 0.109589 11.8652 0.172809 11.8007 0.252017L6.5 6.10153L1.19935 0.252016C1.13477 0.172807 1.05678 0.109589 0.970177 0.066254C0.883569 0.0229191 0.790169 0.000376111 0.695705 6.07688e-06C0.601242 -0.00036348 0.507708 0.0214594 0.420846 0.0641149C0.333983 0.10677 0.255624 0.169361 0.190575 0.248062C0.125526 0.326763 0.0751616 0.419902 0.0425708 0.521771C0.00997989 0.62364 -0.0041488 0.732097 0.00105062 0.840466C0.00625004 0.948835 0.0306689 1.05483 0.0728079 1.15197C0.114947 1.2491 0.173917 1.33533 0.246101 1.40534L6.02338 7.77755C6.09831 7.86035 6.18849 7.92272 6.28724 7.96006C6.38599 7.9974 6.49078 8.00876 6.59387 7.99328Z" fill="#B9B9B9"/>
</svg>
