<svg width="19" height="13" viewBox="0 0 19 13" fill="none" xmlns="http://www.w3.org/2000/svg">
<path d="M16.0799 0.58067L7.73339 8.8515L2.90181 4.02488C2.7765 3.90036 2.62734 3.80121 2.46286 3.73308C2.29837 3.66494 2.12178 3.62917 1.94316 3.6278C1.76454 3.62643 1.58739 3.65948 1.42183 3.72508C1.25627 3.79068 1.10554 3.88753 0.978241 4.01011C0.850946 4.13269 0.749581 4.27859 0.679931 4.43949C0.610281 4.60039 0.57371 4.77313 0.572308 4.94786C0.569476 5.30073 0.710065 5.64025 0.963144 5.89172L6.77916 11.6695C6.86862 11.7453 6.96817 11.8089 7.07509 11.8585C7.11853 11.8922 7.16502 11.9218 7.214 11.9472C7.37496 12.0121 7.54719 12.0462 7.72131 12.0476C7.8955 12.0468 8.06784 12.0127 8.22863 11.9472C8.28655 11.9172 8.34119 11.8816 8.3917 11.8408C8.49002 11.7964 8.5815 11.7387 8.66347 11.6695V11.6695L17.9945 2.42979C18.1286 2.30905 18.2363 2.16293 18.3111 2.00027C18.3858 1.83761 18.426 1.6618 18.4292 1.4835C18.4324 1.3052 18.3986 1.12811 18.3298 0.962977C18.261 0.797839 18.1586 0.648085 18.0289 0.52279C17.8992 0.397496 17.7448 0.299268 17.5751 0.234058C17.4054 0.168849 17.224 0.138018 17.0417 0.143429C16.8595 0.148841 16.6803 0.190384 16.515 0.265542C16.3497 0.3407 16.2017 0.447908 16.0799 0.58067V0.58067Z" fill="#393939"/>
</svg>
