<svg width="12" height="8" viewBox="0 0 12 8" fill="none" xmlns="http://www.w3.org/2000/svg">
<path d="M10.4212 0.294234L4.81228 5.85223L1.56546 2.60874C1.48125 2.52507 1.38101 2.45843 1.27048 2.41265C1.15994 2.36687 1.04127 2.34283 0.921238 2.3419C0.801205 2.34098 0.682162 2.3632 0.570906 2.40728C0.459649 2.45136 0.358358 2.51644 0.272816 2.59882C0.187273 2.68119 0.119156 2.77924 0.072351 2.88736C0.025546 2.99549 0.000970368 3.11157 2.81954e-05 3.22898C-0.00187461 3.46611 0.092601 3.69427 0.26267 3.86326L4.17103 7.74592C4.23115 7.79686 4.29805 7.83959 4.3699 7.87296C4.39909 7.89556 4.43033 7.91549 4.46324 7.93251C4.57141 7.97616 4.68715 7.99908 4.80416 8C4.92121 7.99948 5.03703 7.97655 5.14508 7.93251C5.184 7.91241 5.22072 7.88846 5.25466 7.86105C5.32073 7.8312 5.38221 7.79245 5.43729 7.74592L11.7077 1.53684C11.7979 1.45571 11.8703 1.35751 11.9205 1.2482C11.9707 1.1389 11.9977 1.02075 11.9999 0.900936C12.002 0.781117 11.9793 0.662117 11.9331 0.551144C11.8868 0.440171 11.818 0.339537 11.7308 0.255339C11.6437 0.17114 11.5399 0.105131 11.4259 0.0613107C11.3119 0.0174902 11.1899 -0.0032288 11.0675 0.000407758C10.945 0.00404431 10.8246 0.0319612 10.7135 0.0824674C10.6024 0.132974 10.503 0.205018 10.4212 0.294234Z" fill="#393939"/>
</svg>
