<svg width="15" height="10" viewBox="0 0 15 10" fill="none" xmlns="http://www.w3.org/2000/svg">
<path d="M13.0265 0.367792L6.01535 7.31529L1.95682 3.26093C1.85156 3.15633 1.72627 3.07304 1.5881 3.01581C1.44993 2.95858 1.30159 2.92853 1.15155 2.92738C1.00151 2.92623 0.852702 2.954 0.713632 3.0091C0.574561 3.0642 0.447947 3.14556 0.34102 3.24852C0.234092 3.35149 0.148945 3.47405 0.0904388 3.6092C0.0319325 3.74436 0.00121296 3.88946 3.52442e-05 4.03623C-0.00234326 4.33264 0.115751 4.61784 0.328338 4.82908L5.21379 9.6824C5.28894 9.74607 5.37256 9.79949 5.46237 9.8412C5.49886 9.86945 5.53792 9.89437 5.57906 9.91564C5.71427 9.97021 5.85894 9.99885 6.0052 10C6.15152 9.99935 6.29629 9.97069 6.43135 9.91564C6.48 9.89051 6.5259 9.86058 6.56832 9.82631C6.65092 9.789 6.72776 9.74056 6.79661 9.6824L14.6346 1.92105C14.7473 1.81963 14.8378 1.69689 14.9006 1.56026C14.9634 1.42362 14.9971 1.27594 14.9998 1.12617C15.0025 0.976396 14.9741 0.827646 14.9163 0.68893C14.8585 0.550214 14.7725 0.424421 14.6636 0.319173C14.5546 0.213926 14.4249 0.131414 14.2824 0.0766384C14.1398 0.0218627 13.9874 -0.004036 13.8344 0.000509697C13.6813 0.00505539 13.5308 0.0399515 13.3919 0.103084C13.253 0.166217 13.1287 0.256272 13.0265 0.367792Z" fill="#393939"/>
</svg>
